# xmcd
#
# Track frame offsets:
#	150
#	35393
#	55105
#	68758
#	85471
#	120814
#	147066
#	180207
#	196892
#	219610
#
# Disc length: 3176 seconds
#
# Revision: 0
# Processed by: cddbd v1.5.2PL0 Copyright (c) Steve Scherf et al.
# Submitted via: EasyCDDAExtractor 9.0.0.1
#
DISCID=7e0c660a
DTITLE=Nouvelle Vague - Aula Magna 07.12.07 CD 2
DYEAR=1900
DGENRE=
TTITLE0=Israel
TTITLE1=Grey Day
TTITLE2=Sweet and Tender Hooligan
TTITLE3=Dance With Me
TTITLE4=Friday Night Saturday Morning
TTITLE5=Bela Lugosi's Dead
TTITLE6=Love Will Tear Us Apart
TTITLE7=Escape Myself
TTITLE8=In A Manner Of Speaking
TTITLE9=Just Can't Get Enough
EXTD=
EXTT0=
EXTT1=
EXTT2=
EXTT3=
EXTT4=
EXTT5=
EXTT6=
EXTT7=
EXTT8=
EXTT9=
PLAYORDER=
